<!-- icons/github.svg -->
<svg xmlns="http://www.w3.org/2000/svg" viewBox="0 0 24 24" aria-hidden="true"><path fill="currentColor" d="M12 2a10 10 0 0 0-3.16 19.49c.5.09.68-.21.68-.47 0-.23 0-.85 0-1.67-2.78.6-3.37-1.19-3.37-1.19-.46-1.15-1.12-1.46-1.12-1.46-.92-.64.07-.63.07-.63 1.02.07 1.55 1.05 1.55 1.05 .9 1.54 2.36 1.1 2.94.84 .09-.65 .35-1.1 .64-1.35-2.22-.25-4.55-1.11-4.55-4.95 0-1.09 .39-1.98 1.03-2.68-.1-.25-.45-1.27 .1-2.65 0 0 .85-.27 2.77 1.02a9.6 9.6 0 0 1 5.04 0c1.92-1.29 2.77-1.02 2.77-1.02 .55 1.38 .2 2.4 .1 2.65 .64 .7 1.03 1.59 1.03 2.68 0 3.85-2.34 4.7-4.57 4.95 .36 .31 .68 .92 .68 1.86 0 1.35 0 2.44 0 2.77 0 .26 .18 .56 .69 .47A10 10 0 0 0 12 2z"/></svg>
